<mxfile host="app.diagrams.net" agent="Mozilla/5.0 (Windows NT 10.0; Win64; x64) AppleWebKit/537.36 (KHTML, like Gecko) Chrome/129.0.0.0 Safari/537.36" version="24.7.16">
  <diagram id="1JJ-UvxjRfw-XplDersZ" name="Page-1">
    <mxGraphModel dx="1500" dy="817" grid="1" gridSize="10" guides="1" tooltips="1" connect="1" arrows="1" fold="1" page="1" pageScale="1" pageWidth="1169" pageHeight="827" math="0" shadow="0">
      <root>
        <mxCell id="0" />
        <mxCell id="1" parent="0" />
        <mxCell id="kaHw650PAHcyYOZ95sWL-1" value="" style="shape=cube;whiteSpace=wrap;html=1;boundedLbl=1;backgroundOutline=1;darkOpacity=0.05;darkOpacity2=0.1;size=20;perimeterSpacing=0;flipH=1;" vertex="1" parent="1">
          <mxGeometry x="480" y="500" width="140" height="153.5" as="geometry" />
        </mxCell>
        <mxCell id="kaHw650PAHcyYOZ95sWL-2" value="" style="shape=actor;whiteSpace=wrap;html=1;" vertex="1" parent="1">
          <mxGeometry x="300" y="530" width="70" height="85" as="geometry" />
        </mxCell>
        <mxCell id="kaHw650PAHcyYOZ95sWL-3" style="edgeStyle=orthogonalEdgeStyle;rounded=0;orthogonalLoop=1;jettySize=auto;html=1;exitX=0.992;exitY=0.612;exitDx=0;exitDy=0;entryX=0.997;entryY=0.53;entryDx=0;entryDy=0;entryPerimeter=0;fontSize=12;startSize=8;endSize=8;exitPerimeter=0;endArrow=none;endFill=0;dashed=1;" edge="1" parent="1" source="kaHw650PAHcyYOZ95sWL-2" target="kaHw650PAHcyYOZ95sWL-1">
          <mxGeometry relative="1" as="geometry" />
        </mxCell>
        <mxCell id="kaHw650PAHcyYOZ95sWL-4" value="Bibliotecario" style="text;html=1;align=center;verticalAlign=middle;resizable=0;points=[];autosize=1;strokeColor=none;fillColor=none;fontSize=16;" vertex="1" parent="1">
          <mxGeometry x="280" y="500" width="110" height="30" as="geometry" />
        </mxCell>
        <mxCell id="kaHw650PAHcyYOZ95sWL-5" value="Cliente" style="text;html=1;align=center;verticalAlign=middle;resizable=0;points=[];autosize=1;strokeColor=none;fillColor=none;fontSize=16;" vertex="1" parent="1">
          <mxGeometry x="500" y="530" width="70" height="30" as="geometry" />
        </mxCell>
        <mxCell id="kaHw650PAHcyYOZ95sWL-6" value="Interfaz" style="rounded=0;whiteSpace=wrap;html=1;" vertex="1" parent="1">
          <mxGeometry x="500" y="583.5" width="70" height="38" as="geometry" />
        </mxCell>
        <mxCell id="kaHw650PAHcyYOZ95sWL-7" value="" style="shape=cube;whiteSpace=wrap;html=1;boundedLbl=1;backgroundOutline=1;darkOpacity=0.05;darkOpacity2=0.1;size=20;perimeterSpacing=0;flipH=1;" vertex="1" parent="1">
          <mxGeometry x="480" y="280" width="140" height="153.5" as="geometry" />
        </mxCell>
        <mxCell id="kaHw650PAHcyYOZ95sWL-8" value="AplicaciÃ³n" style="text;html=1;align=center;verticalAlign=middle;resizable=0;points=[];autosize=1;strokeColor=none;fillColor=none;fontSize=16;" vertex="1" parent="1">
          <mxGeometry x="490" y="310" width="100" height="30" as="geometry" />
        </mxCell>
        <mxCell id="kaHw650PAHcyYOZ95sWL-9" value="EduLib" style="rounded=0;whiteSpace=wrap;html=1;" vertex="1" parent="1">
          <mxGeometry x="500" y="363.5" width="70" height="38" as="geometry" />
        </mxCell>
        <mxCell id="kaHw650PAHcyYOZ95sWL-10" style="edgeStyle=orthogonalEdgeStyle;rounded=0;orthogonalLoop=1;jettySize=auto;html=1;exitX=0;exitY=0;exitDx=60;exitDy=0;exitPerimeter=0;entryX=0;entryY=0;entryDx=80;entryDy=153.5;entryPerimeter=0;fontSize=12;startSize=8;endSize=8;endArrow=none;endFill=0;" edge="1" parent="1" source="kaHw650PAHcyYOZ95sWL-1" target="kaHw650PAHcyYOZ95sWL-7">
          <mxGeometry relative="1" as="geometry">
            <Array as="points">
              <mxPoint x="540" y="500" />
            </Array>
          </mxGeometry>
        </mxCell>
        <mxCell id="kaHw650PAHcyYOZ95sWL-11" value="Java" style="edgeLabel;html=1;align=center;verticalAlign=middle;resizable=0;points=[];fontSize=12;" vertex="1" connectable="0" parent="kaHw650PAHcyYOZ95sWL-10">
          <mxGeometry x="-0.0948" y="-1" relative="1" as="geometry">
            <mxPoint x="-1" y="-11" as="offset" />
          </mxGeometry>
        </mxCell>
        <mxCell id="kaHw650PAHcyYOZ95sWL-12" value="" style="shape=cube;whiteSpace=wrap;html=1;boundedLbl=1;backgroundOutline=1;darkOpacity=0.05;darkOpacity2=0.1;size=20;perimeterSpacing=0;flipH=1;" vertex="1" parent="1">
          <mxGeometry x="740" y="280" width="150" height="153.5" as="geometry" />
        </mxCell>
        <mxCell id="kaHw650PAHcyYOZ95sWL-13" value="MySQL DB" style="text;html=1;align=center;verticalAlign=middle;resizable=0;points=[];autosize=1;strokeColor=none;fillColor=none;fontSize=16;" vertex="1" parent="1">
          <mxGeometry x="755" y="310" width="100" height="30" as="geometry" />
        </mxCell>
        <mxCell id="kaHw650PAHcyYOZ95sWL-14" value="Base de Datos&lt;div&gt;Biblioteca&lt;/div&gt;" style="rounded=0;whiteSpace=wrap;html=1;" vertex="1" parent="1">
          <mxGeometry x="760" y="363.5" width="90" height="38" as="geometry" />
        </mxCell>
        <mxCell id="kaHw650PAHcyYOZ95sWL-15" style="edgeStyle=none;curved=1;rounded=0;orthogonalLoop=1;jettySize=auto;html=1;entryX=0;entryY=0;entryDx=150;entryDy=86.75;entryPerimeter=0;fontSize=12;startSize=8;endSize=8;endArrow=none;endFill=0;exitX=-0.009;exitY=0.575;exitDx=0;exitDy=0;exitPerimeter=0;" edge="1" parent="1" source="kaHw650PAHcyYOZ95sWL-7" target="kaHw650PAHcyYOZ95sWL-12">
          <mxGeometry relative="1" as="geometry">
            <mxPoint x="620" y="368" as="sourcePoint" />
            <mxPoint x="730" y="368" as="targetPoint" />
          </mxGeometry>
        </mxCell>
        <mxCell id="kaHw650PAHcyYOZ95sWL-16" value="JDBC" style="edgeLabel;html=1;align=center;verticalAlign=middle;resizable=0;points=[];fontSize=12;" vertex="1" connectable="0" parent="kaHw650PAHcyYOZ95sWL-15">
          <mxGeometry x="-0.0948" y="-1" relative="1" as="geometry">
            <mxPoint as="offset" />
          </mxGeometry>
        </mxCell>
      </root>
    </mxGraphModel>
  </diagram>
</mxfile>
